<?xml version="1.0" encoding="utf-8"?>
<!-- Generator: Adobe Illustrator 25.3.1, SVG Export Plug-In . SVG Version: 6.00 Build 0)  -->
<svg version="1.1" xmlns="http://www.w3.org/2000/svg" xmlns:xlink="http://www.w3.org/1999/xlink" x="0px" y="0px"
	 viewBox="0 0 64 64" style="enable-background:new 0 0 64 64;" xml:space="preserve">
<style type="text/css">
	.st0{fill:#DEA8FF;}
	.st1{fill:#C260FF;}
	.st2{opacity:0.25;enable-background:new    ;}
	.st3{fill:#64438E;}
	.st4{fill:#EDD3FD;}
	.st5{fill:#FFFFFF;}
	.st6{fill:#F696C6;}
	.st7{display:none;}
	.st8{display:inline;}
</style>
<g id="Aavegotchi_bg">
	<g>
		<rect class="st0" width="64" height="64"/>
		<g>
			<rect x="63" y="32" class="st1" width="1" height="1"/>
			<rect x="63" y="36" class="st1" width="1" height="1"/>
			<rect x="21" y="34" class="st1" width="1" height="1"/>
			<rect x="22" y="33" class="st1" width="1" height="1"/>
			<rect x="42" y="33" class="st1" width="1" height="1"/>
			<rect x="41" y="34" class="st1" width="1" height="1"/>
			<polygon class="st1" points="11,30 11,31 12,31 12,30 13,30 13,29 12,29 12,28 11,28 11,29 10,29 10,30 			"/>
			<polygon class="st1" points="15,30 15,31 16,31 16,30 17,30 17,29 16,29 16,28 15,28 15,29 14,29 14,30 			"/>
			<path class="st1" d="M14,31v-1h-1v1h-1v1h1c0.5,0,1.5,0,2,0v-1H14z"/>
			<polygon class="st1" points="13,28 13,29 14,29 14,28 15,28 15,27 14,27 14,26 13,26 13,27 12,27 12,28 			"/>
			<path class="st1" d="M10,31v-1H9v1H8v1h1c0.5,0,1.5,0,2,0v-1H10z"/>
			<path class="st1" d="M2,31v-1H1v1H0v1c0.89,0,2.11,0,3,0v-1H2z"/>
			<polygon class="st1" points="5,28 5,29 6,29 6,28 7,28 7,27 6,27 6,26 5,26 5,27 4,27 4,28 			"/>
			<polygon class="st1" points="2,28 3,28 3,27 2,27 2,26 1,26 1,27 0,27 0,28 1,28 1,29 2,29 			"/>
			<polygon class="st1" points="9,28 9,29 10,29 10,28 11,28 11,27 10,27 10,26 9,26 9,27 8,27 8,28 			"/>
			<path class="st1" d="M7,32v-1H6v-1H5v1H4v1c0.5,0,1.5,0,2,0H7z"/>
			<rect y="25" class="st1" width="1" height="1"/>
			<rect y="29" class="st1" width="1" height="1"/>
			<polygon class="st1" points="8,30 9,30 9,29 8,29 8,28 7,28 7,29 6,29 6,30 7,30 7,31 8,31 			"/>
			<polygon class="st1" points="5,30 5,29 4,29 4,28 3,28 3,29 2,29 2,30 3,30 3,31 4,31 4,30 			"/>
			<polygon class="st1" points="55,30 55,31 56,31 56,30 57,30 57,29 56,29 56,28 55,28 55,29 54,29 54,30 			"/>
			<polygon class="st1" points="51,30 51,31 52,31 52,30 53,30 53,29 52,29 52,28 51,28 51,29 50,29 50,30 			"/>
			<path class="st1" d="M54,31v-1h-1v1h-1v1h1c0.5,0,1.5,0,2,0v-1H54z"/>
			<polygon class="st1" points="53,28 53,29 54,29 54,28 55,28 55,27 54,27 54,26 53,26 53,27 52,27 52,28 			"/>
			<path class="st1" d="M2,24h1v1H2v1h1v1h1v-1h1v-1H4v-1h1v1h1v-1h1v1H6v1h1v1h1v-1h1v-1H8v-1h1v1h1v-1h1v1h-1v1h1v1h1v-1h1v-1h-1
				v-1h1v1h1v-1h1v1h-1v1h1v1h1v-1h1v-1h-1v-1h1v1h1v-1h1v1h-1v1h1v1h1v-1h1v-1h-1v-1h1v1h1v-1h1v1h-1v1h1v1h1v-1h1v-1h-1v-1h1v1h1
				v-1h1v1h-1v1h1v1h1v-1h1v-1h-1v-1h1v1h1v-1h1v1h-1v1h1v1h1v-1h1v-1h-1v-1h1v1h1v-1h1v1h-1v1h1v1h1v-1h1v-1h-1v-1h1v1h1v-1h1v1h-1
				v1h1v1h1v-1h1v-1h-1v-1h1v1h1v-1h1v1h-1v1h1v1h1v-1h1v-1h-1v-1h1v1h1v-1h1v1h-1v1h1v1h1v-1h1v-1h-1v-1h1v1h1v-1h1v1h-1v1h1v1h1
				v-1h1v-1h-1v-1h1v1h1v-1h1v1h-1v1h1v1h1v-1h1v-1h-1v-1h1v1h1v-1h1v1h-1v1h1v1h1v-1h1v-1h-1v-1h1v1h1v-1h1v1h-1v1h1v1h1
				c0-8.99,0-18.01,0-27c0,0-43,0-64,0c0,2.63,0,5.37,0,8h1v1H0c0,0.89,0,2.11,0,3h1v1H0c0,0.89,0,2.11,0,3h1v1H0v1h1v1H0v1h1v1H0v1
				h1v1H0v1h1v1h1V24z M62,10h1v1h-1V10z M62,14h1v1h-1V14z M62,16h1v1h-1V16z M62,18h1v1h-1V18z M62,20h1v1h-1V20z M62,22h1v1h-1
				V22z M60,4h1v1h-1V4z M60,8h1v1h-1V8z M60,12h1v1h-1V12z M60,16h1v1h-1V16z M60,20h1v1h-1V20z M60,22h1v1h-1V22z M58,10h1v1h-1
				V10z M58,14h1v1h-1V14z M58,16h1v1h-1V16z M58,18h1v1h-1V18z M58,20h1v1h-1V20z M58,22h1v1h-1V22z M56,8h1v1h-1V8z M56,12h1v1h-1
				V12z M56,16h1v1h-1V16z M56,18h1v1h-1V18z M56,20h1v1h-1V20z M56,22h1v1h-1V22z M55,23h-1v-1h1V23z M55,21h-1v-1h1V21z M55,19h-1
				v-1h1V19z M55,17h-1v-1h1V17z M55,15h-1v-1h1V15z M55,11h-1v-1h1V11z M53,4h1v1h-1V4z M52,8h1v1h-1V8z M52,12h1v1h-1V12z M52,16
				h1v1h-1V16z M52,20h1v1h-1V20z M52,22h1v1h-1V22z M50,10h1v1h-1V10z M50,14h1v1h-1V14z M50,16h1v1h-1V16z M50,18h1v1h-1V18z
				 M50,20h1v1h-1V20z M50,22h1v1h-1V22z M48,8h1v1h-1V8z M48,12h1v1h-1V12z M48,16h1v1h-1V16z M48,18h1v1h-1V18z M48,20h1v1h-1V20z
				 M48,22h1v1h-1V22z M46,4h1v1h-1V4z M46,10h1v1h-1V10z M46,14h1v1h-1V14z M46,16h1v1h-1V16z M46,18h1v1h-1V18z M46,20h1v1h-1V20z
				 M46,22h1v1h-1V22z M44,8h1v1h-1V8z M44,12h1v1h-1V12z M44,16h1v1h-1V16z M44,20h1v1h-1V20z M44,22h1v1h-1V22z M42,10h1v1h-1V10z
				 M42,14h1v1h-1V14z M42,16h1v1h-1V16z M42,18h1v1h-1V18z M42,20h1v1h-1V20z M42,22h1v1h-1V22z M41,23h-1v-1h1V23z M41,21h-1v-1h1
				V21z M41,19h-1v-1h1V19z M41,17h-1v-1h1V17z M41,13h-1v-1h1V13z M41,9h-1V8h1V9z M39,4h1v1h-1V4z M38,10h1v1h-1V10z M38,14h1v1
				h-1V14z M38,16h1v1h-1V16z M38,18h1v1h-1V18z M38,20h1v1h-1V20z M38,22h1v1h-1V22z M36,8h1v1h-1V8z M36,12h1v1h-1V12z M36,16h1v1
				h-1V16z M36,18h1v1h-1V18z M36,20h1v1h-1V20z M36,22h1v1h-1V22z M34,10h1v1h-1V10z M34,14h1v1h-1V14z M34,16h1v1h-1V16z M34,18h1
				v1h-1V18z M34,20h1v1h-1V20z M34,22h1v1h-1V22z M32,4h1v1h-1V4z M32,8h1v1h-1V8z M32,12h1v1h-1V12z M32,16h1v1h-1V16z M32,18h1v1
				h-1V18z M32,20h1v1h-1V20z M32,22h1v1h-1V22z M30,10h1v1h-1V10z M30,14h1v1h-1V14z M30,16h1v1h-1V16z M30,18h1v1h-1V18z M30,20h1
				v1h-1V20z M30,22h1v1h-1V22z M28,8h1v1h-1V8z M28,12h1v1h-1V12z M28,16h1v1h-1V16z M28,18h1v1h-1V18z M28,20h1v1h-1V20z M28,22h1
				v1h-1V22z M27,23h-1v-1h1V23z M27,21h-1v-1h1V21z M27,19h-1v-1h1V19z M27,17h-1v-1h1V17z M27,15h-1v-1h1V15z M27,11h-1v-1h1V11z
				 M25,4h1v1h-1V4z M24,8h1v1h-1V8z M24,12h1v1h-1V12z M24,16h1v1h-1V16z M24,18h1v1h-1V18z M24,20h1v1h-1V20z M24,22h1v1h-1V22z
				 M22,10h1v1h-1V10z M22,14h1v1h-1V14z M22,16h1v1h-1V16z M22,18h1v1h-1V18z M22,20h1v1h-1V20z M22,22h1v1h-1V22z M20,8h1v1h-1V8z
				 M20,12h1v1h-1V12z M20,16h1v1h-1V16z M20,20h1v1h-1V20z M20,22h1v1h-1V22z M18,4h1v1h-1V4z M18,10h1v1h-1V10z M18,14h1v1h-1V14z
				 M18,16h1v1h-1V16z M18,18h1v1h-1V18z M18,20h1v1h-1V20z M18,22h1v1h-1V22z M16,8h1v1h-1V8z M16,12h1v1h-1V12z M16,16h1v1h-1V16z
				 M16,18h1v1h-1V18z M16,20h1v1h-1V20z M16,22h1v1h-1V22z M14,10h1v1h-1V10z M14,14h1v1h-1V14z M14,16h1v1h-1V16z M14,18h1v1h-1
				V18z M14,20h1v1h-1V20z M14,22h1v1h-1V22z M13,23h-1v-1h1V23z M13,21h-1v-1h1V21z M13,17h-1v-1h1V17z M13,13h-1v-1h1V13z M13,9
				h-1V8h1V9z M11,4h1v1h-1V4z M10,10h1v1h-1V10z M10,14h1v1h-1V14z M10,16h1v1h-1V16z M10,18h1v1h-1V18z M10,20h1v1h-1V20z M10,22
				h1v1h-1V22z M8,8h1v1H8V8z M8,12h1v1H8V12z M8,16h1v1H8V16z M8,18h1v1H8V18z M8,20h1v1H8V20z M8,22h1v1H8V22z M6,10h1v1H6V10z
				 M6,14h1v1H6V14z M6,16h1v1H6V16z M6,18h1v1H6V18z M6,20h1v1H6V20z M6,22h1v1H6V22z M4,4h1v1H4V4z M4,8h1v1H4V8z M4,12h1v1H4V12z
				 M4,16h1v1H4V16z M4,20h1v1H4V20z M4,22h1v1H4V22z M2,10h1v1H2V10z M2,14h1v1H2V14z M2,16h1v1H2V16z M2,18h1v1H2V18z M2,20h1v1H2
				V20z M2,22h1v1H2V22z"/>
			<polygon class="st1" points="59,29 58,29 58,30 59,30 59,31 60,31 60,30 61,30 61,29 60,29 60,28 59,28 			"/>
			<path class="st1" d="M57,31h-1v1c0.89,0,2.11,0,3,0v-1h-1v-1h-1V31z"/>
			<polygon class="st1" points="57,28 57,29 58,29 58,28 59,28 59,27 58,27 58,26 57,26 57,27 56,27 56,28 			"/>
			<polygon class="st1" points="62,27 62,26 61,26 61,27 60,27 60,28 61,28 61,29 62,29 62,28 63,28 63,27 			"/>
			<path class="st1" d="M62,29v1h1v1h1c0-0.89,0-2.11,0-3h-1v1H62z"/>
			<path class="st1" d="M62,30h-1v1h-1v1c0.89,0,2.11,0,3,0v-1h-1V30z"/>
			<rect x="10" y="53" class="st1" width="1" height="1"/>
			<rect x="14" y="49" class="st1" width="1" height="1"/>
			<rect x="11" y="36" class="st1" width="1" height="1"/>
			<rect x="14" y="37" class="st1" width="1" height="1"/>
			<rect x="12" y="43" class="st1" width="1" height="1"/>
			<rect x="14" y="45" class="st1" width="1" height="1"/>
			<rect x="12" y="37" class="st1" width="1" height="1"/>
			<rect x="14" y="47" class="st1" width="1" height="1"/>
			<rect x="12" y="41" class="st1" width="1" height="1"/>
			<rect x="13" y="38" class="st1" width="1" height="1"/>
			<rect x="12" y="39" class="st1" width="1" height="1"/>
			<rect x="14" y="39" class="st1" width="1" height="1"/>
			<rect x="14" y="41" class="st1" width="1" height="1"/>
			<rect x="10" y="41" class="st1" width="1" height="1"/>
			<rect x="10" y="39" class="st1" width="1" height="1"/>
			<rect x="10" y="35" class="st1" width="1" height="1"/>
			<rect x="14" y="35" class="st1" width="1" height="1"/>
			<rect x="10" y="33" class="st1" width="1" height="1"/>
			<rect x="9" y="34" class="st1" width="1" height="1"/>
			<rect x="13" y="34" class="st1" width="1" height="1"/>
			<rect x="14" y="33" class="st1" width="1" height="1"/>
			<rect x="14" y="53" class="st1" width="1" height="1"/>
			<rect x="18" y="59" class="st1" width="1" height="1"/>
			<rect x="11" y="59" class="st1" width="1" height="1"/>
			<rect x="12" y="55" class="st1" width="1" height="1"/>
			<rect x="12" y="51" class="st1" width="1" height="1"/>
			<rect x="20" y="55" class="st1" width="1" height="1"/>
			<rect x="10" y="43" class="st1" width="1" height="1"/>
			<rect x="9" y="38" class="st1" width="1" height="1"/>
			<rect x="10" y="37" class="st1" width="1" height="1"/>
			<rect x="14" y="43" class="st1" width="1" height="1"/>
			<rect x="11" y="32" class="st1" width="1" height="1"/>
			<rect x="12" y="35" class="st1" width="1" height="1"/>
			<rect x="12" y="33" class="st1" width="1" height="1"/>
			<rect y="39" class="st1" width="1" height="1"/>
			<rect x="4" y="39" class="st1" width="1" height="1"/>
			<rect x="2" y="39" class="st1" width="1" height="1"/>
			<rect x="8" y="35" class="st1" width="1" height="1"/>
			<rect x="6" y="35" class="st1" width="1" height="1"/>
			<rect y="35" class="st1" width="1" height="1"/>
			<rect x="4" y="35" class="st1" width="1" height="1"/>
			<rect x="4" y="41" class="st1" width="1" height="1"/>
			<rect y="41" class="st1" width="1" height="1"/>
			<rect x="2" y="41" class="st1" width="1" height="1"/>
			<rect x="8" y="41" class="st1" width="1" height="1"/>
			<rect x="5" y="38" class="st1" width="1" height="1"/>
			<rect x="1" y="38" class="st1" width="1" height="1"/>
			<rect x="8" y="33" class="st1" width="1" height="1"/>
			<rect x="6" y="33" class="st1" width="1" height="1"/>
			<rect x="4" y="33" class="st1" width="1" height="1"/>
			<rect x="1" y="34" class="st1" width="1" height="1"/>
			<rect y="33" class="st1" width="1" height="1"/>
			<rect y="51" class="st1" width="1" height="1"/>
			<rect x="4" y="51" class="st1" width="1" height="1"/>
			<rect x="8" y="47" class="st1" width="1" height="1"/>
			<rect x="6" y="47" class="st1" width="1" height="1"/>
			<rect x="10" y="47" class="st1" width="1" height="1"/>
			<rect x="12" y="47" class="st1" width="1" height="1"/>
			<rect x="2" y="47" class="st1" width="1" height="1"/>
			<rect x="6" y="53" class="st1" width="1" height="1"/>
			<rect x="2" y="53" class="st1" width="1" height="1"/>
			<rect x="6" y="45" class="st1" width="1" height="1"/>
			<rect x="12" y="45" class="st1" width="1" height="1"/>
			<rect x="8" y="45" class="st1" width="1" height="1"/>
			<rect x="2" y="45" class="st1" width="1" height="1"/>
			<rect y="45" class="st1" width="1" height="1"/>
			<rect x="4" y="59" class="st1" width="1" height="1"/>
			<rect x="8" y="51" class="st1" width="1" height="1"/>
			<rect x="7" y="32" class="st1" width="1" height="1"/>
			<rect x="3" y="32" class="st1" width="1" height="1"/>
			<rect x="8" y="43" class="st1" width="1" height="1"/>
			<rect x="4" y="43" class="st1" width="1" height="1"/>
			<rect x="6" y="43" class="st1" width="1" height="1"/>
			<rect x="2" y="43" class="st1" width="1" height="1"/>
			<rect y="43" class="st1" width="1" height="1"/>
			<rect x="4" y="55" class="st1" width="1" height="1"/>
			<rect y="55" class="st1" width="1" height="1"/>
			<rect x="8" y="55" class="st1" width="1" height="1"/>
			<rect x="4" y="47" class="st1" width="1" height="1"/>
			<rect y="47" class="st1" width="1" height="1"/>
			<rect x="6" y="39" class="st1" width="1" height="1"/>
			<rect x="8" y="39" class="st1" width="1" height="1"/>
			<rect x="7" y="36" class="st1" width="1" height="1"/>
			<rect x="3" y="36" class="st1" width="1" height="1"/>
			<rect x="2" y="35" class="st1" width="1" height="1"/>
			<rect x="6" y="41" class="st1" width="1" height="1"/>
			<rect x="6" y="37" class="st1" width="1" height="1"/>
			<rect x="4" y="37" class="st1" width="1" height="1"/>
			<rect x="2" y="37" class="st1" width="1" height="1"/>
			<rect y="37" class="st1" width="1" height="1"/>
			<rect x="8" y="37" class="st1" width="1" height="1"/>
			<rect x="5" y="34" class="st1" width="1" height="1"/>
			<rect x="2" y="33" class="st1" width="1" height="1"/>
			<rect x="10" y="49" class="st1" width="1" height="1"/>
			<rect x="6" y="49" class="st1" width="1" height="1"/>
			<rect x="2" y="49" class="st1" width="1" height="1"/>
			<rect x="53" y="59" class="st1" width="1" height="1"/>
			<rect x="54" y="53" class="st1" width="1" height="1"/>
			<rect x="50" y="49" class="st1" width="1" height="1"/>
			<rect x="51" y="36" class="st1" width="1" height="1"/>
			<rect x="50" y="37" class="st1" width="1" height="1"/>
			<rect x="52" y="43" class="st1" width="1" height="1"/>
			<rect x="50" y="45" class="st1" width="1" height="1"/>
			<rect x="52" y="37" class="st1" width="1" height="1"/>
			<rect x="50" y="43" class="st1" width="1" height="1"/>
			<rect x="50" y="47" class="st1" width="1" height="1"/>
			<rect x="50" y="39" class="st1" width="1" height="1"/>
			<rect x="52" y="39" class="st1" width="1" height="1"/>
			<rect x="49" y="38" class="st1" width="1" height="1"/>
			<rect x="52" y="41" class="st1" width="1" height="1"/>
			<rect x="50" y="41" class="st1" width="1" height="1"/>
			<rect x="53" y="38" class="st1" width="1" height="1"/>
			<rect x="54" y="39" class="st1" width="1" height="1"/>
			<rect x="54" y="35" class="st1" width="1" height="1"/>
			<rect x="50" y="35" class="st1" width="1" height="1"/>
			<rect x="53" y="34" class="st1" width="1" height="1"/>
			<rect x="54" y="33" class="st1" width="1" height="1"/>
			<rect x="49" y="34" class="st1" width="1" height="1"/>
			<rect x="50" y="33" class="st1" width="1" height="1"/>
			<rect x="50" y="53" class="st1" width="1" height="1"/>
			<rect x="46" y="59" class="st1" width="1" height="1"/>
			<rect x="44" y="55" class="st1" width="1" height="1"/>
			<rect x="52" y="55" class="st1" width="1" height="1"/>
			<rect x="52" y="51" class="st1" width="1" height="1"/>
			<rect x="54" y="43" class="st1" width="1" height="1"/>
			<rect x="54" y="37" class="st1" width="1" height="1"/>
			<rect x="54" y="41" class="st1" width="1" height="1"/>
			<rect x="51" y="32" class="st1" width="1" height="1"/>
			<rect x="52" y="35" class="st1" width="1" height="1"/>
			<rect x="52" y="33" class="st1" width="1" height="1"/>
			<rect x="55" y="32" class="st1" width="1" height="1"/>
			<rect x="58" y="39" class="st1" width="1" height="1"/>
			<rect x="56" y="39" class="st1" width="1" height="1"/>
			<rect x="62" y="35" class="st1" width="1" height="1"/>
			<rect x="60" y="35" class="st1" width="1" height="1"/>
			<rect x="58" y="35" class="st1" width="1" height="1"/>
			<rect x="55" y="36" class="st1" width="1" height="1"/>
			<rect x="58" y="41" class="st1" width="1" height="1"/>
			<rect x="62" y="41" class="st1" width="1" height="1"/>
			<rect x="56" y="41" class="st1" width="1" height="1"/>
			<rect x="62" y="33" class="st1" width="1" height="1"/>
			<rect x="60" y="33" class="st1" width="1" height="1"/>
			<rect x="58" y="33" class="st1" width="1" height="1"/>
			<rect x="60" y="51" class="st1" width="1" height="1"/>
			<rect x="56" y="51" class="st1" width="1" height="1"/>
			<rect x="62" y="47" class="st1" width="1" height="1"/>
			<rect x="52" y="47" class="st1" width="1" height="1"/>
			<rect x="56" y="47" class="st1" width="1" height="1"/>
			<rect x="60" y="47" class="st1" width="1" height="1"/>
			<rect x="58" y="53" class="st1" width="1" height="1"/>
			<rect x="62" y="45" class="st1" width="1" height="1"/>
			<rect x="56" y="45" class="st1" width="1" height="1"/>
			<rect x="54" y="45" class="st1" width="1" height="1"/>
			<rect x="32" y="55" class="st1" width="1" height="1"/>
			<rect x="40" y="55" class="st1" width="1" height="1"/>
			<rect x="59" y="32" class="st1" width="1" height="1"/>
			<rect x="56" y="43" class="st1" width="1" height="1"/>
			<rect x="60" y="43" class="st1" width="1" height="1"/>
			<rect x="62" y="43" class="st1" width="1" height="1"/>
			<rect x="58" y="43" class="st1" width="1" height="1"/>
			<rect x="60" y="55" class="st1" width="1" height="1"/>
			<rect x="56" y="55" class="st1" width="1" height="1"/>
			<rect x="54" y="47" class="st1" width="1" height="1"/>
			<rect x="58" y="47" class="st1" width="1" height="1"/>
			<rect x="62" y="39" class="st1" width="1" height="1"/>
			<rect x="60" y="39" class="st1" width="1" height="1"/>
			<rect x="59" y="36" class="st1" width="1" height="1"/>
			<rect x="56" y="35" class="st1" width="1" height="1"/>
			<rect x="60" y="59" class="st1" width="1" height="1"/>
			<rect x="62" y="53" class="st1" width="1" height="1"/>
			<rect x="58" y="45" class="st1" width="1" height="1"/>
			<rect x="60" y="41" class="st1" width="1" height="1"/>
			<rect x="62" y="37" class="st1" width="1" height="1"/>
			<rect x="61" y="38" class="st1" width="1" height="1"/>
			<rect x="60" y="37" class="st1" width="1" height="1"/>
			<rect x="58" y="37" class="st1" width="1" height="1"/>
			<rect x="57" y="38" class="st1" width="1" height="1"/>
			<rect x="56" y="37" class="st1" width="1" height="1"/>
			<rect x="61" y="34" class="st1" width="1" height="1"/>
			<rect x="57" y="34" class="st1" width="1" height="1"/>
			<rect x="56" y="33" class="st1" width="1" height="1"/>
			<rect x="62" y="49" class="st1" width="1" height="1"/>
			<rect x="58" y="49" class="st1" width="1" height="1"/>
			<rect x="54" y="49" class="st1" width="1" height="1"/>
			<rect x="25" y="59" class="st1" width="1" height="1"/>
			<rect x="32" y="59" class="st1" width="1" height="1"/>
			<rect x="39" y="59" class="st1" width="1" height="1"/>
			<polygon class="st1" points="23,30 23,31 24,31 24,30 25,30 25,29 24,29 24,28 23,28 23,29 22,29 22,30 			"/>
			<polygon class="st1" points="19,30 19,31 20,31 20,30 21,30 21,29 20,29 20,28 19,28 19,29 18,29 18,30 			"/>
			<path class="st1" d="M22,31v-1h-1v1h-1v1h1c0.5,0,1.5,0,2,0v-1H22z"/>
			<polygon class="st1" points="21,28 21,29 22,29 22,28 23,28 23,27 22,27 22,26 21,26 21,27 20,27 20,28 			"/>
			<path class="st1" d="M26,31v-1h-1v1h-1v1h1c0.5,0,1.5,0,2,0v-1H26z"/>
			<path class="st1" d="M30,31v-1h-1v1h-1v1h1c0.5,0,1.5,0,2,0v-1H30z"/>
			<polygon class="st1" points="31,30 31,31 32,31 32,30 33,30 33,29 32,29 32,28 31,28 31,29 30,29 30,30 			"/>
			<polygon class="st1" points="43,30 43,31 44,31 44,30 45,30 45,29 44,29 44,28 43,28 43,29 42,29 42,30 			"/>
			<path class="st1" d="M46,31v-1h-1v1h-1v1h1c0.5,0,1.5,0,2,0v-1H46z"/>
			<polygon class="st1" points="45,28 45,29 46,29 46,28 47,28 47,27 46,27 46,26 45,26 45,27 44,27 44,28 			"/>
			<path class="st1" d="M42,31v-1h-1v1h-1v1h1c0.5,0,1.5,0,2,0v-1H42z"/>
			<path class="st1" d="M34,31v-1h-1v1h-1v1h1c0.5,0,1.5,0,2,0v-1H34z"/>
			<path class="st1" d="M38,31v-1h-1v1h-1v1h1c0.5,0,1.5,0,2,0v-1H38z"/>
			<polygon class="st1" points="33,28 33,29 34,29 34,28 35,28 35,27 34,27 34,26 33,26 33,27 32,27 32,28 			"/>
			<polygon class="st1" points="35,30 35,31 36,31 36,30 37,30 37,29 36,29 36,28 35,28 35,29 34,29 34,30 			"/>
			<rect x="18" y="49" class="st1" width="1" height="1"/>
			<rect x="19" y="36" class="st1" width="1" height="1"/>
			<rect x="18" y="37" class="st1" width="1" height="1"/>
			<rect x="20" y="43" class="st1" width="1" height="1"/>
			<rect x="18" y="45" class="st1" width="1" height="1"/>
			<rect x="18" y="47" class="st1" width="1" height="1"/>
			<rect x="18" y="39" class="st1" width="1" height="1"/>
			<rect x="20" y="39" class="st1" width="1" height="1"/>
			<rect x="20" y="41" class="st1" width="1" height="1"/>
			<rect x="18" y="41" class="st1" width="1" height="1"/>
			<rect x="22" y="35" class="st1" width="1" height="1"/>
			<rect x="18" y="35" class="st1" width="1" height="1"/>
			<rect x="18" y="33" class="st1" width="1" height="1"/>
			<rect x="22" y="43" class="st1" width="1" height="1"/>
			<rect x="22" y="37" class="st1" width="1" height="1"/>
			<rect x="22" y="41" class="st1" width="1" height="1"/>
			<rect x="19" y="32" class="st1" width="1" height="1"/>
			<rect x="20" y="35" class="st1" width="1" height="1"/>
			<rect x="20" y="33" class="st1" width="1" height="1"/>
			<rect x="31" y="32" class="st1" width="1" height="1"/>
			<rect x="23" y="32" class="st1" width="1" height="1"/>
			<rect x="26" y="39" class="st1" width="1" height="1"/>
			<rect x="24" y="39" class="st1" width="1" height="1"/>
			<rect x="28" y="35" class="st1" width="1" height="1"/>
			<rect x="26" y="35" class="st1" width="1" height="1"/>
			<rect x="23" y="36" class="st1" width="1" height="1"/>
			<rect x="30" y="41" class="st1" width="1" height="1"/>
			<rect x="24" y="41" class="st1" width="1" height="1"/>
			<rect x="30" y="33" class="st1" width="1" height="1"/>
			<rect x="26" y="33" class="st1" width="1" height="1"/>
			<rect x="30" y="47" class="st1" width="1" height="1"/>
			<rect x="20" y="47" class="st1" width="1" height="1"/>
			<rect x="24" y="47" class="st1" width="1" height="1"/>
			<rect x="28" y="47" class="st1" width="1" height="1"/>
			<rect x="30" y="45" class="st1" width="1" height="1"/>
			<rect x="27" y="32" class="st1" width="1" height="1"/>
			<rect x="24" y="43" class="st1" width="1" height="1"/>
			<rect x="28" y="43" class="st1" width="1" height="1"/>
			<rect x="30" y="43" class="st1" width="1" height="1"/>
			<rect x="22" y="47" class="st1" width="1" height="1"/>
			<rect x="26" y="47" class="st1" width="1" height="1"/>
			<rect x="30" y="39" class="st1" width="1" height="1"/>
			<rect x="28" y="39" class="st1" width="1" height="1"/>
			<rect x="27" y="36" class="st1" width="1" height="1"/>
			<rect x="24" y="35" class="st1" width="1" height="1"/>
			<rect x="28" y="41" class="st1" width="1" height="1"/>
			<rect x="30" y="37" class="st1" width="1" height="1"/>
			<rect x="29" y="38" class="st1" width="1" height="1"/>
			<rect x="28" y="37" class="st1" width="1" height="1"/>
			<rect x="26" y="37" class="st1" width="1" height="1"/>
			<rect x="25" y="38" class="st1" width="1" height="1"/>
			<rect x="24" y="37" class="st1" width="1" height="1"/>
			<rect x="29" y="34" class="st1" width="1" height="1"/>
			<rect x="25" y="34" class="st1" width="1" height="1"/>
			<rect x="24" y="33" class="st1" width="1" height="1"/>
			<rect x="30" y="49" class="st1" width="1" height="1"/>
			<rect x="26" y="49" class="st1" width="1" height="1"/>
			<rect x="22" y="49" class="st1" width="1" height="1"/>
			<rect x="43" y="36" class="st1" width="1" height="1"/>
			<rect x="44" y="37" class="st1" width="1" height="1"/>
			<rect x="44" y="41" class="st1" width="1" height="1"/>
			<rect x="44" y="39" class="st1" width="1" height="1"/>
			<rect x="42" y="41" class="st1" width="1" height="1"/>
			<rect x="42" y="39" class="st1" width="1" height="1"/>
			<rect x="42" y="35" class="st1" width="1" height="1"/>
			<rect x="42" y="43" class="st1" width="1" height="1"/>
			<rect x="41" y="38" class="st1" width="1" height="1"/>
			<rect x="42" y="37" class="st1" width="1" height="1"/>
			<rect x="43" y="32" class="st1" width="1" height="1"/>
			<rect x="44" y="35" class="st1" width="1" height="1"/>
			<rect x="44" y="33" class="st1" width="1" height="1"/>
			<rect x="32" y="39" class="st1" width="1" height="1"/>
			<rect x="36" y="39" class="st1" width="1" height="1"/>
			<rect x="34" y="39" class="st1" width="1" height="1"/>
			<rect x="40" y="35" class="st1" width="1" height="1"/>
			<rect x="38" y="35" class="st1" width="1" height="1"/>
			<rect x="36" y="35" class="st1" width="1" height="1"/>
			<rect x="36" y="41" class="st1" width="1" height="1"/>
			<rect x="32" y="41" class="st1" width="1" height="1"/>
			<rect x="34" y="41" class="st1" width="1" height="1"/>
			<rect x="40" y="41" class="st1" width="1" height="1"/>
			<rect x="37" y="38" class="st1" width="1" height="1"/>
			<rect x="33" y="38" class="st1" width="1" height="1"/>
			<rect x="40" y="33" class="st1" width="1" height="1"/>
			<rect x="38" y="33" class="st1" width="1" height="1"/>
			<rect x="33" y="34" class="st1" width="1" height="1"/>
			<rect x="32" y="33" class="st1" width="1" height="1"/>
			<rect x="40" y="47" class="st1" width="1" height="1"/>
			<rect x="38" y="47" class="st1" width="1" height="1"/>
			<rect x="42" y="47" class="st1" width="1" height="1"/>
			<rect x="44" y="47" class="st1" width="1" height="1"/>
			<rect x="34" y="47" class="st1" width="1" height="1"/>
			<rect x="32" y="45" class="st1" width="1" height="1"/>
			<rect x="39" y="32" class="st1" width="1" height="1"/>
			<rect x="35" y="32" class="st1" width="1" height="1"/>
			<rect x="40" y="43" class="st1" width="1" height="1"/>
			<rect x="38" y="43" class="st1" width="1" height="1"/>
			<rect x="34" y="43" class="st1" width="1" height="1"/>
			<rect x="32" y="43" class="st1" width="1" height="1"/>
			<rect x="36" y="47" class="st1" width="1" height="1"/>
			<rect x="32" y="47" class="st1" width="1" height="1"/>
			<rect x="38" y="39" class="st1" width="1" height="1"/>
			<rect x="39" y="36" class="st1" width="1" height="1"/>
			<rect x="35" y="36" class="st1" width="1" height="1"/>
			<rect x="36" y="45" class="st1" width="1" height="1"/>
			<rect x="38" y="41" class="st1" width="1" height="1"/>
			<rect x="38" y="37" class="st1" width="1" height="1"/>
			<rect x="36" y="37" class="st1" width="1" height="1"/>
			<rect x="34" y="37" class="st1" width="1" height="1"/>
			<rect x="32" y="37" class="st1" width="1" height="1"/>
			<rect x="40" y="37" class="st1" width="1" height="1"/>
			<rect x="37" y="34" class="st1" width="1" height="1"/>
			<rect x="34" y="33" class="st1" width="1" height="1"/>
			<rect x="38" y="49" class="st1" width="1" height="1"/>
			<rect x="34" y="49" class="st1" width="1" height="1"/>
			<rect x="18" y="53" class="st1" width="1" height="1"/>
			<rect x="20" y="51" class="st1" width="1" height="1"/>
			<rect x="46" y="49" class="st1" width="1" height="1"/>
			<rect x="46" y="53" class="st1" width="1" height="1"/>
			<rect x="44" y="51" class="st1" width="1" height="1"/>
			<rect x="32" y="51" class="st1" width="1" height="1"/>
			<rect x="40" y="51" class="st1" width="1" height="1"/>
			<rect x="42" y="49" class="st1" width="1" height="1"/>
			<polygon class="st1" points="47,30 47,31 48,31 48,30 49,30 49,29 48,29 48,28 47,28 47,29 46,29 46,30 			"/>
			<rect x="17" y="38" class="st1" width="1" height="1"/>
			<rect x="17" y="34" class="st1" width="1" height="1"/>
			<rect x="46" y="37" class="st1" width="1" height="1"/>
			<rect x="46" y="45" class="st1" width="1" height="1"/>
			<rect x="46" y="47" class="st1" width="1" height="1"/>
			<rect x="45" y="38" class="st1" width="1" height="1"/>
			<rect x="46" y="39" class="st1" width="1" height="1"/>
			<rect x="46" y="41" class="st1" width="1" height="1"/>
			<rect x="46" y="35" class="st1" width="1" height="1"/>
			<rect x="45" y="34" class="st1" width="1" height="1"/>
			<rect x="46" y="33" class="st1" width="1" height="1"/>
			<rect x="46" y="43" class="st1" width="1" height="1"/>
			<rect x="18" y="43" class="st1" width="1" height="1"/>
			<rect x="20" y="45" class="st1" width="1" height="1"/>
			<rect x="26" y="45" class="st1" width="1" height="1"/>
			<rect x="42" y="45" class="st1" width="1" height="1"/>
			<rect x="36" y="43" class="st1" width="1" height="1"/>
			<rect x="28" y="51" class="st1" width="1" height="1"/>
			<rect x="24" y="51" class="st1" width="1" height="1"/>
			<rect x="28" y="55" class="st1" width="1" height="1"/>
			<rect x="24" y="55" class="st1" width="1" height="1"/>
			<rect x="26" y="53" class="st1" width="1" height="1"/>
			<rect x="36" y="51" class="st1" width="1" height="1"/>
			<rect x="36" y="55" class="st1" width="1" height="1"/>
			<rect x="38" y="53" class="st1" width="1" height="1"/>
			<polygon class="st1" points="17,28 17,29 18,29 18,28 19,28 19,27 18,27 18,26 17,26 17,27 16,27 16,28 			"/>
			<path class="st1" d="M18,31v-1h-1v1h-1v1h1c0.5,0,1.5,0,2,0v-1H18z"/>
			<polygon class="st1" points="29,28 29,29 30,29 30,28 31,28 31,27 30,27 30,26 29,26 29,27 28,27 28,28 			"/>
			<polygon class="st1" points="25,28 25,29 26,29 26,28 27,28 27,27 26,27 26,26 25,26 25,27 24,27 24,28 			"/>
			<polygon class="st1" points="27,30 27,31 28,31 28,30 29,30 29,29 28,29 28,28 27,28 27,29 26,29 26,30 			"/>
			<polygon class="st1" points="49,28 49,29 50,29 50,28 51,28 51,27 50,27 50,26 49,26 49,27 48,27 48,28 			"/>
			<path class="st1" d="M50,31v-1h-1v1h-1v1h1c0.5,0,1.5,0,2,0v-1H50z"/>
			<polygon class="st1" points="37,28 37,29 38,29 38,28 39,28 39,27 38,27 38,26 37,26 37,27 36,27 36,28 			"/>
			<polygon class="st1" points="41,28 41,29 42,29 42,28 43,28 43,27 42,27 42,26 41,26 41,27 40,27 40,28 			"/>
			<polygon class="st1" points="39,30 39,31 40,31 40,30 41,30 41,29 40,29 40,28 39,28 39,29 38,29 38,30 			"/>
			<rect x="22" y="53" class="st1" width="1" height="1"/>
			<rect x="16" y="51" class="st1" width="1" height="1"/>
			<rect x="16" y="37" class="st1" width="1" height="1"/>
			<rect x="15" y="36" class="st1" width="1" height="1"/>
			<rect x="16" y="47" class="st1" width="1" height="1"/>
			<rect x="16" y="41" class="st1" width="1" height="1"/>
			<rect x="16" y="39" class="st1" width="1" height="1"/>
			<rect x="16" y="55" class="st1" width="1" height="1"/>
			<rect x="16" y="43" class="st1" width="1" height="1"/>
			<rect x="15" y="32" class="st1" width="1" height="1"/>
			<rect x="16" y="35" class="st1" width="1" height="1"/>
			<rect x="16" y="33" class="st1" width="1" height="1"/>
			<rect x="30" y="35" class="st1" width="1" height="1"/>
			<rect x="28" y="33" class="st1" width="1" height="1"/>
			<rect x="31" y="36" class="st1" width="1" height="1"/>
			<rect x="30" y="53" class="st1" width="1" height="1"/>
			<rect x="48" y="45" class="st1" width="1" height="1"/>
			<rect x="42" y="53" class="st1" width="1" height="1"/>
			<rect x="48" y="51" class="st1" width="1" height="1"/>
			<rect x="48" y="37" class="st1" width="1" height="1"/>
			<rect x="47" y="36" class="st1" width="1" height="1"/>
			<rect x="48" y="47" class="st1" width="1" height="1"/>
			<rect x="48" y="41" class="st1" width="1" height="1"/>
			<rect x="48" y="39" class="st1" width="1" height="1"/>
			<rect x="48" y="55" class="st1" width="1" height="1"/>
			<rect x="48" y="43" class="st1" width="1" height="1"/>
			<rect x="47" y="32" class="st1" width="1" height="1"/>
			<rect x="48" y="35" class="st1" width="1" height="1"/>
			<rect x="48" y="33" class="st1" width="1" height="1"/>
			<rect x="32" y="35" class="st1" width="1" height="1"/>
			<rect x="36" y="33" class="st1" width="1" height="1"/>
			<rect x="34" y="53" class="st1" width="1" height="1"/>
			<rect x="34" y="35" class="st1" width="1" height="1"/>
			<rect x="44" y="43" class="st1" width="1" height="1"/>
			<rect x="38" y="45" class="st1" width="1" height="1"/>
			<rect x="40" y="39" class="st1" width="1" height="1"/>
			<rect x="20" y="37" class="st1" width="1" height="1"/>
			<rect x="21" y="38" class="st1" width="1" height="1"/>
			<rect x="22" y="39" class="st1" width="1" height="1"/>
			<rect x="26" y="41" class="st1" width="1" height="1"/>
			<rect x="24" y="45" class="st1" width="1" height="1"/>
			<rect x="26" y="43" class="st1" width="1" height="1"/>
		</g>
	</g>
</g>
<g id="Aavegotchi">
	<g>
		<path class="st2" d="M44,58H19v1h1v1h24v-1h1v-1H44z"/>
		<g>
			<g>
				<g>
					<polygon class="st3" points="47,14 47,12 45,12 45,10 41,10 41,8 37,8 37,6 27,6 27,8 23,8 23,10 19,10 19,12 17,12 17,14 
						15,14 15,55 19,55 19,53 24,53 24,55 29,55 29,53 35,53 35,55 40,55 40,53 45,53 45,55 49,55 49,14 					"/>
					<polygon class="st4" points="45,14 45,12 41,12 41,10 37,10 37,8 27,8 27,10 23,10 23,12 19,12 19,14 17,14 17,53 19,53 19,51 
						24,51 24,53 29,53 29,51 35,51 35,53 40,53 40,51 45,51 45,53 47,53 47,14 					"/>
					<path class="st5" d="M18,49h2v-1h2v1h2v2h5v-2h2v-1h2v1h2v2h5v-2h2v-1h2v1h1V14h-4v-2h-4v-2h-5V9h-5v2h-4v2h-4v2h-1V49z"/>
				</g>
				<g>
					<g>
						<path class="st3" d="M23,28v2h4v-2h2v-4h-2v-2h-4v2h-2v4H23z M35,24v4h2v2h4v-2h2v-4h-2v-2h-4v2H35z"/>
						<g>
							<path class="st6" d="M21,32v2h2v-2H21z M41,32v2h2v-2H41z"/>
							<g>
								<path class="st3" d="M29,32h-2v2h2V32z"/>
								<path class="st3" d="M29,34v2h6v-2H29z"/>
								<path class="st3" d="M35,32v2h2v-2H35z"/>
							</g>
						</g>
					</g>
					<g>
						<polygon class="st3" points="35,15 35,14 34,14 34,13 33,13 33,12 31,12 31,13 30,13 30,14 29,14 29,15 28,15 28,19 29,19 
							29,20 30,20 30,21 31,21 31,22 33,22 33,21 34,21 34,20 35,20 35,19 36,19 36,15 						"/>
						<g>
							<g>
								<path class="st0" d="M29,17v2h1v1h1v1h1v-4H29z"/>
								<path class="st0" d="M34,15v-1h-1v-1h-1v4h3v-2H34z"/>
							</g>
							<path class="st1" d="M32,17v4h1v-1h1v-1h1v-2H32z"/>
							<path class="st4" d="M31,13v1h-1v1h-1v2h3v-4H31z"/>
						</g>
					</g>
				</g>
			</g>
			<g>
				<g>
					<g>
						<path class="st4" d="M44,42h1v2h-1V42z M38,44v2h4v-2H38z"/>
						<path class="st4" d="M36,41v3h2v-3H36z M42,43v2h2v-2H42z"/>
						<path class="st4" d="M37,41h1v4h-1V41z"/>
					</g>
					<g>
						<polygon class="st3" points="43,36 43,37 42,37 42,38 40,38 40,39 38,39 38,40 37,40 37,44 38,44 38,45 42,45 42,44 44,44 
							44,43 45,43 45,42 44,42 44,37 44,36 						"/>
						<path class="st5" d="M38,40v4h4v-1h2v-1h1v-6h-1v1h-1v1h-1v1h-2v1H38z"/>
					</g>
				</g>
				<g>
					<g>
						<path class="st4" d="M20,44h-1v-2h1V44z M22,44v2h4v-2H22z"/>
						<path class="st4" d="M26,41v3h2v-3H26z M20,43v2h2v-2H20z"/>
						<path class="st4" d="M27,45h-1v-4h1V45z"/>
					</g>
					<g>
						<polygon class="st3" points="21,36 21,37 22,37 22,38 24,38 24,39 26,39 26,40 27,40 27,44 26,44 26,45 22,45 22,44 20,44 
							20,43 19,43 19,42 20,42 20,37 20,36 						"/>
						<path class="st5" d="M24,40v-1h-2v-1h-1v-1h-1v-1h-1v6h1v1h2v1h4v-4H24z"/>
					</g>
				</g>
			</g>
		</g>
	</g>
</g>
<g id="Aavegotchi_open_arms" class="st7">
	<g class="st8">
		<path class="st2" d="M44,58H19v1h1v1h24v-1h1v-1H44z"/>
		<g>
			<g>
				<g>
					<polygon class="st3" points="8,38 8,37 10,37 10,36 12,36 12,35 13,35 13,34 14,34 14,33 15,33 15,41 14,41 14,42 12,42 12,43 
						8,43 8,42 7,42 7,38 					"/>
					<polygon class="st4" points="10,38 10,37 12,37 12,36 13,36 13,35 14,35 14,34 15,34 15,40 14,40 14,41 12,41 12,42 8,42 8,38 
											"/>
					<path class="st5" d="M8,38v3h4v-1h2v-1h1v-5h-1v1h-1v1h-1v1h-2v1H8z"/>
				</g>
				<g>
					<polygon class="st3" points="56,38 56,37 54,37 54,36 52,36 52,35 51,35 51,34 50,34 50,33 49,33 49,41 50,41 50,42 52,42 
						52,43 56,43 56,42 57,42 57,38 					"/>
					<polygon class="st4" points="54,38 54,37 52,37 52,36 51,36 51,35 50,35 50,34 49,34 49,40 50,40 50,41 52,41 52,42 56,42 
						56,38 					"/>
					<path class="st5" d="M54,38v-1h-2v-1h-1v-1h-1v-1h-1v5h1v1h2v1h4v-3H54z"/>
				</g>
			</g>
			<g>
				<g>
					<polygon class="st3" points="47,14 47,12 45,12 45,10 41,10 41,8 37,8 37,6 27,6 27,8 23,8 23,10 19,10 19,12 17,12 17,14 
						15,14 15,55 19,55 19,53 24,53 24,55 29,55 29,53 35,53 35,55 40,55 40,53 45,53 45,55 49,55 49,14 					"/>
					<polygon class="st4" points="45,14 45,12 41,12 41,10 37,10 37,8 27,8 27,10 23,10 23,12 19,12 19,14 17,14 17,53 19,53 19,51 
						24,51 24,53 29,53 29,51 35,51 35,53 40,53 40,51 45,51 45,53 47,53 47,14 					"/>
					<path class="st5" d="M18,49h2v-1h2v1h2v2h5v-2h2v-1h2v1h2v2h5v-2h2v-1h2v1h1V14h-4v-2h-4v-2h-5V9h-5v2h-4v2h-4v2h-1V49z"/>
				</g>
				<g>
					<g>
						<path class="st3" d="M23,28v2h4v-2h2v-4h-2v-2h-4v2h-2v4H23z M35,24v4h2v2h4v-2h2v-4h-2v-2h-4v2H35z"/>
						<g>
							<path class="st6" d="M21,32v2h2v-2H21z M41,32v2h2v-2H41z"/>
							<g>
								<path class="st3" d="M29,32h-2v2h2V32z"/>
								<path class="st3" d="M29,34v2h6v-2H29z"/>
								<path class="st3" d="M35,32v2h2v-2H35z"/>
							</g>
						</g>
					</g>
					<g>
						<polygon class="st3" points="35,15 35,14 34,14 34,13 33,13 33,12 31,12 31,13 30,13 30,14 29,14 29,15 28,15 28,19 29,19 
							29,20 30,20 30,21 31,21 31,22 33,22 33,21 34,21 34,20 35,20 35,19 36,19 36,15 						"/>
						<g>
							<g>
								<path class="st0" d="M29,17v2h1v1h1v1h1v-4H29z"/>
								<path class="st0" d="M34,15v-1h-1v-1h-1v4h3v-2H34z"/>
							</g>
							<path class="st1" d="M32,17v4h1v-1h1v-1h1v-2H32z"/>
							<path class="st4" d="M31,13v1h-1v1h-1v2h3v-4H31z"/>
						</g>
					</g>
				</g>
			</g>
		</g>
	</g>
</g>
</svg>
