<?xml version="1.0" encoding="UTF-8" standalone="no"?>
<!DOCTYPE svg PUBLIC "-//W3C//DTD SVG 1.1//EN" "http://www.w3.org/Graphics/SVG/1.1/DTD/svg11.dtd">
<svg width="100%" height="100%" viewBox="0 0 23 56" version="1.1" xmlns="http://www.w3.org/2000/svg" xmlns:xlink="http://www.w3.org/1999/xlink" xml:space="preserve" xmlns:serif="http://www.serif.com/" style="fill-rule:evenodd;clip-rule:evenodd;stroke-linejoin:round;stroke-miterlimit:2;">
    <g id="Group_20">
        <path id="Path_164" d="M14.721,45.5C14.551,45.299 14.551,45.001 14.721,44.8L21.932,36.136C22.013,36.039 22.058,35.916 22.058,35.789C22.058,35.492 21.813,35.247 21.516,35.247L18.093,35.247C17.93,35.247 17.775,35.32 17.672,35.447L11.529,43.017C11.426,43.144 11.271,43.218 11.108,43.218C10.811,43.218 10.566,42.973 10.566,42.676C10.566,42.675 10.566,42.675 10.566,42.675L10.566,14.021C10.566,13.724 10.811,13.479 11.108,13.479L14.893,13.479C16.118,13.479 17.126,12.471 17.126,11.246L17.126,2.234C17.126,2.234 17.126,2.233 17.126,2.233C17.126,1.008 16.118,-0 14.893,-0L2.233,0C1.008,-0 -0,1.008 -0,2.233C-0,2.233 -0,2.234 0,2.234L0,11.245C0,12.47 1.008,13.478 2.233,13.478L6.018,13.478C6.315,13.478 6.56,13.723 6.56,14.02L6.56,54.679C6.56,54.976 6.805,55.221 7.102,55.221L10.024,55.221C10.321,55.221 10.566,54.976 10.566,54.679L10.566,47.845C10.566,47.547 10.811,47.303 11.108,47.303C11.271,47.303 11.425,47.376 11.528,47.502L17.672,55.025C17.775,55.151 17.929,55.225 18.092,55.225L21.736,55.225C22.034,55.225 22.278,54.98 22.278,54.683C22.278,54.555 22.233,54.432 22.151,54.334L14.721,45.5ZM4.624,9.4C4.327,9.4 4.082,9.155 4.082,8.858L4.082,4.625C4.082,4.328 4.327,4.083 4.624,4.083L12.5,4.083C12.797,4.083 13.042,4.328 13.042,4.625L13.042,8.855C13.042,8.856 13.042,8.857 13.042,8.858C13.042,9.155 12.797,9.4 12.5,9.4L4.624,9.4Z" style="fill:rgb(63,204,187);fill-rule:nonzero;"/>
    </g>
</svg>
