<svg id="Desktop-Logo" xmlns="http://www.w3.org/2000/svg" xmlns:xlink="http://www.w3.org/1999/xlink" width="100" height="62.72" viewBox="0 0 100 62.72">
  <defs>
    <clipPath id="clip-path">
      <rect id="Rectangle_450" data-name="Rectangle 450" width="100" height="62.72" fill="#eeeffc"/>
    </clipPath>
  </defs>
  <g id="Group_20" data-name="Group 20" clip-path="url(#clip-path)">
    <path id="Path_152" data-name="Path 152" d="M243.185,35.676h-2.916a.545.545,0,0,0-.545.545v2.916a.545.545,0,0,0,.545.545h2.916a.545.545,0,0,0,.545-.545V36.221a.545.545,0,0,0-.545-.545" transform="translate(-174.479 -25.966)" fill="#eeeffc"/>
    <path id="Path_153" data-name="Path 153" d="M243.188,59.855h-2.922a.542.542,0,0,0-.542.542v14.77a.542.542,0,0,0,.542.542h2.922a.542.542,0,0,0,.542-.542V60.4a.542.542,0,0,0-.542-.542" transform="translate(-174.479 -43.564)" fill="#eeeffc"/>
    <path id="Path_154" data-name="Path 154" d="M49.726,59.243a.542.542,0,0,0-.542.542v14.77a.542.542,0,0,0,.542.542h2.922a.542.542,0,0,0,.542-.542V66.34c0-2.547,1.4-3.92,3.577-3.92,2.117,0,3.519,1.374,3.519,3.92v8.215a.542.542,0,0,0,.542.542h2.922a.542.542,0,0,0,.542-.542V65.8c0-4.378-2.632-6.782-6.324-6.782a5.923,5.923,0,0,0-4.779,2.2V59.785a.542.542,0,0,0-.542-.542Z" transform="translate(-35.798 -42.952)" fill="#eeeffc"/>
    <path id="Path_155" data-name="Path 155" d="M108.991,45.988h.719a.542.542,0,0,1,.542.542V58.009a.542.542,0,0,0,.542.542h2.98a.542.542,0,0,0,.542-.542V46.53a.542.542,0,0,1,.542-.542h1.692a.542.542,0,0,0,.542-.542V43.239a.542.542,0,0,0-.542-.542h-2.233v-.658c0-1.611.543-2.279,2.1-2.345a.536.536,0,0,0,.5-.539v-2.3a.549.549,0,0,0-.548-.547c-4.1.044-6.119,1.855-6.119,5.584v.8h-1.261a.542.542,0,0,0-.542.542v2.208a.542.542,0,0,0,.542.542" transform="translate(-78.933 -26.429)" fill="#eeeffc"/>
    <path id="Path_156" data-name="Path 156" d="M149.565,39.682h2.916a.545.545,0,0,0,.545-.545V36.221a.545.545,0,0,0-.545-.545h-2.916a.545.545,0,0,0-.545.545v2.916a.545.545,0,0,0,.545.545" transform="translate(-108.462 -25.966)" fill="#eeeffc"/>
    <path id="Path_157" data-name="Path 157" d="M149.563,75.708h2.922a.542.542,0,0,0,.542-.542V60.4a.542.542,0,0,0-.542-.542h-2.922a.542.542,0,0,0-.542.542v14.77a.542.542,0,0,0,.542.542" transform="translate(-108.462 -43.564)" fill="#eeeffc"/>
    <path id="Path_158" data-name="Path 158" d="M174.392,75.1h2.922a.542.542,0,0,0,.542-.542V66.339c0-2.547,1.4-3.92,3.577-3.92,2.118,0,3.52,1.374,3.52,3.92v8.215a.542.542,0,0,0,.542.542h2.922a.542.542,0,0,0,.542-.542V65.795c0-4.378-2.632-6.782-6.324-6.782a5.921,5.921,0,0,0-4.779,2.2V59.784a.542.542,0,0,0-.542-.542h-2.922a.542.542,0,0,0-.542.542v14.77a.542.542,0,0,0,.542.542" transform="translate(-126.534 -42.952)" fill="#eeeffc"/>
    <path id="Path_159" data-name="Path 159" d="M273.008,49.371h-2.465a.542.542,0,0,1-.542-.542V45.993a.542.542,0,0,0-.542-.542h-2.951a.542.542,0,0,0-.542.542v2.837a.542.542,0,0,1-.542.542h-.8a.542.542,0,0,0-.542.542v2.208a.542.542,0,0,0,.542.542h.8a.542.542,0,0,1,.542.542v7.1c0,3.634,2.032,4.922,5.065,4.922h1.977a.542.542,0,0,0,.542-.542V62.39a.542.542,0,0,0-.542-.542h-1.318c-1.259,0-1.688-.459-1.688-1.518V53.2a.542.542,0,0,1,.542-.542h2.465a.542.542,0,0,0,.542-.542V49.913a.542.542,0,0,0-.542-.542" transform="translate(-192.204 -33.081)" fill="#eeeffc"/>
    <path id="Path_160" data-name="Path 160" d="M322.865,59.855h-3.072a.542.542,0,0,0-.507.352l-3.507,9.359a.542.542,0,0,1-1.016,0l-3.456-9.354a.542.542,0,0,0-.508-.354h-3.307a.542.542,0,0,0-.5.748L312.949,75.1a.542.542,0,0,1,0,.422l-3.013,6.93a.542.542,0,0,0,.5.758h3.077a.542.542,0,0,0,.5-.332l9.36-22.267a.542.542,0,0,0-.5-.752" transform="translate(-223.408 -43.564)" fill="#eeeffc"/>
    <path id="Path_161" data-name="Path 161" d="M86,143.706c-4.693,0-7.955,3.176-7.955,8.184,0,4.979,3.348,8.184,7.955,8.184a7.408,7.408,0,0,0,7.14-4.472.548.548,0,0,0-.5-.765H89.417a.551.551,0,0,0-.473.284,3.253,3.253,0,0,1-3.024,1.633,3.639,3.639,0,0,1-3.7-2.982.552.552,0,0,1,.529-.68H93.22a.547.547,0,0,0,.547-.48,10.419,10.419,0,0,0,.05-1.066A7.442,7.442,0,0,0,86,143.706m3.051,6.7H82.818a.551.551,0,0,1-.523-.708,3.6,3.6,0,0,1,3.6-2.7,3.567,3.567,0,0,1,3.7,2.737.552.552,0,0,1-.534.668" transform="translate(-56.807 -104.594)" fill="#eeeffc"/>
    <path id="Path_162" data-name="Path 162" d="M151.237,144.651h-3.073a.542.542,0,0,0-.507.352l-3.506,9.359a.542.542,0,0,1-1.016,0l-3.456-9.354a.542.542,0,0,0-.508-.354h-3.307a.542.542,0,0,0-.5.748l5.958,14.492a.541.541,0,0,1,0,.422l-3.013,6.93a.542.542,0,0,0,.5.758h3.077a.542.542,0,0,0,.5-.332l9.359-22.267a.542.542,0,0,0-.5-.752" transform="translate(-98.491 -105.282)" fill="#eeeffc"/>
    <path id="Path_163" data-name="Path 163" d="M201.069,148.4c0-.915.773-1.517,2.26-1.517a2.419,2.419,0,0,1,2.6,1.689.521.521,0,0,0,.513.372h2.772a.538.538,0,0,0,.54-.609c-.469-2.805-2.727-4.627-6.308-4.627-3.92,0-6.267,2.117-6.267,4.75,0,5.809,8.957,4.007,8.957,6.839,0,.916-.859,1.631-2.433,1.631a2.72,2.72,0,0,1-2.79-1.766.523.523,0,0,0-.511-.351h-2.978a.551.551,0,0,0-.533.665c.52,2.624,3.168,4.6,6.841,4.6,3.863,0,6.238-2.06,6.238-4.779-.115-5.809-8.9-4.007-8.9-6.9" transform="translate(-143.295 -104.593)" fill="#eeeffc"/>
    <path id="Path_164" data-name="Path 164" d="M14.721,45.5a.542.542,0,0,1,0-.7l7.211-8.664a.542.542,0,0,0-.416-.889H18.093a.542.542,0,0,0-.421.2l-6.143,7.57a.542.542,0,0,1-.963-.342V35.792c0-.006,0-.011,0-.017V31.62c0-.006,0-.011,0-.017V14.021a.542.542,0,0,1,.542-.542h3.785a2.233,2.233,0,0,0,2.233-2.233V2.234A2.233,2.233,0,0,0,14.893,0H2.233A2.233,2.233,0,0,0,0,2.234v9.011a2.233,2.233,0,0,0,2.233,2.233H6.018a.542.542,0,0,1,.542.542V31.6c0,.006,0,.012,0,.019v4.151c0,.006,0,.012,0,.019v18.89a.542.542,0,0,0,.542.542h2.922a.542.542,0,0,0,.542-.542V47.845a.542.542,0,0,1,.962-.343l6.144,7.523a.541.541,0,0,0,.42.2h3.644a.542.542,0,0,0,.415-.891ZM4.624,9.4a.542.542,0,0,1-.542-.542V4.625a.542.542,0,0,1,.542-.542H12.5a.542.542,0,0,1,.542.542V8.855A.542.542,0,0,1,12.5,9.4Z" transform="translate(0 -0.001)" fill="#3fccbb"/>
  </g>
</svg>
