<?xml version="1.0" encoding="utf-8"?>
<!-- Generator: Adobe Illustrator 26.4.1, SVG Export Plug-In . SVG Version: 6.00 Build 0)  -->
<svg version="1.1" id="Layer_1" xmlns="http://www.w3.org/2000/svg" xmlns:xlink="http://www.w3.org/1999/xlink" x="0px" y="0px"
	 viewBox="0 0 144.2 38" style="enable-background:new 0 0 144.2 38;" xml:space="preserve">
<style type="text/css">
	.st0{fill:#EAA019;}
	.st1{fill:#FFFFFF;}
</style>
<g id="Group_1" transform="translate(40.303 31)">
	<g id="Group_19">
		<path id="Path_31" class="st0" d="M-2.2-19.5L-5.7-16c0.6,2,0.7,4,0.4,6.1C-6.2-3.6-11.2,1.4-17.5,2.3c-2,0.3-4.1,0.1-6.1-0.4
			l-3.5,3.5c9.6,4.2,20.7-0.2,24.9-9.8C-0.1-9.2-0.1-14.7-2.2-19.5"/>
		<path id="Path_32" class="st0" d="M1.2-29.7C1.2-29.7,1.2-29.7,1.2-29.7C1.2-29.8,1.2-29.8,1.2-29.7c-1.7-1.8-4.4-1.8-6-0.1
			l-2.9,2.9c0,0-0.1,0-0.1,0c-8.2-6.5-20.1-5.1-26.6,3.1c-5.4,6.9-5.4,16.6,0,23.5c0,0,0,0.1,0,0.1l-5.9,5.9c0,0,0,0.1,0,0.1
			c0,0,0,0,0,0c1.7,1.7,4.4,1.7,6,0c0,0,0,0,0,0L1.2-29.7z M-33.8-14c1.1-7.9,8.4-13.3,16.3-12.2c2.3,0.3,4.5,1.2,6.4,2.6
			c0,0,0,0.1,0,0.1c0,0,0,0,0,0l-20,20c0,0-0.1,0-0.1,0c0,0,0,0,0,0C-33.4-6.5-34.3-10.3-33.8-14"/>
	</g>
</g>
<g id="Group_116" transform="translate(92.05 31)">
	<g id="Group_2">
		<path id="Path_16" class="st1" d="M-40.3-30.7h5.4c2.9,0,4.9,1.6,4.9,5c0,3.4-1.8,5-5.1,5h-1.5v6.4h-3.8V-30.7z M-36.6-23.6h1
			c1.3,0,1.8-0.6,1.8-2.2c0-1.5-0.7-2.1-1.7-2.1h-1.1L-36.6-23.6z"/>
		<path id="Path_17" class="st1" d="M-24.7-21v6.7h-3.7v-16.4h5.5c3.2,0,4.8,1.6,4.8,4.6c0,2.3-1.1,3.3-2.1,3.7
			c1.3,0.6,1.9,1.6,1.9,4v0.6c0,1.2,0,2.4,0.2,3.6h-3.7c-0.2-1.2-0.3-2.5-0.3-3.7v-0.6c0-1.9-0.4-2.5-1.8-2.5L-24.7-21z M-24.6-23.8
			h0.9c1.4,0,2-0.5,2-2.1c0-1.4-0.5-1.9-1.7-1.9h-1.1L-24.6-23.8z"/>
		<path id="Path_18" class="st1" d="M-5.3-22.6c0,6-1.6,8.6-5.7,8.6c-3.8,0-5.5-2.7-5.5-8.7c0-5.8,1.9-8.3,5.7-8.3
			C-7-31-5.3-28.3-5.3-22.6 M-12.6-22.7c0,4.1,0.4,5.7,1.7,5.7c1.4,0,1.7-1.6,1.7-5.7c0-3.9-0.3-5.3-1.7-5.3
			C-12.2-28-12.6-26.5-12.6-22.7"/>
		<path id="Path_19" class="st1" d="M-3.3-30.7h5.5c2.9,0,4.6,1.5,4.6,4.2c0,2.1-0.9,3-2,3.4c1.6,0.6,2.6,2.2,2.4,3.9
			c0,3.3-2,4.9-5.2,4.9h-5.3L-3.3-30.7z M1.4-24.3c1.4,0,1.7-0.6,1.7-1.8c0-1.3-0.5-1.8-1.7-1.8h-1v3.7H1.4z M0.4-17h1.2
			c1.2,0,1.8-0.6,1.8-2.3c0-1.7-0.5-2.4-2-2.4h-1L0.4-17z"/>
		<path id="Path_20" class="st1" d="M12.4-17.8l-0.6,3.5H8.1l3.2-16.4h5.3l3.3,16.4H16l-0.6-3.5H12.4z M14.9-21
			c-0.4-2.4-0.7-5.1-0.9-6.6h-0.1c-0.2,1.6-0.6,4.2-1,6.6H14.9z"/>
		<path id="Path_21" class="st1" d="M21.1-30.7h5.5c2.9,0,4.6,1.5,4.6,4.2c0,2.1-0.9,3-2,3.4c1.6,0.6,2.6,2.2,2.4,3.9
			c0,3.3-2,4.9-5.2,4.9h-5.3L21.1-30.7z M25.8-24.3c1.4,0,1.7-0.6,1.7-1.8c0-1.3-0.5-1.8-1.7-1.8h-1v3.7H25.8z M24.8-17H26
			c1.2,0,1.8-0.6,1.8-2.3c0-1.7-0.5-2.4-2-2.4h-1L24.8-17z"/>
		<path id="Path_22" class="st1" d="M33.4-30.7h3.8v13.4h5.2l-0.4,3.1h-8.6L33.4-30.7z"/>
		<path id="Path_23" class="st1" d="M44.4-14.3v-5.3c0-0.3,0-0.5-0.1-0.8l-3.9-10.3h4.2c0.7,2.5,1.4,5.3,1.8,7.4
			c0.5-1.9,1.3-4.9,1.9-7.4h3.9l-3.9,10.4c-0.1,0.2-0.1,0.4-0.1,0.7v5.4L44.4-14.3z"/>
	</g>
	<g id="Group_3" transform="translate(0 20.999)">
		<path id="Path_24" class="st1" d="M-40.3-14.3v-16.4h4.1c2.5,7.7,3.1,9.6,3.2,10.4h0.1c-0.2-2.1-0.2-4.8-0.2-7.3v-3h3.3v16.4h-4.1
			c-2.6-8.5-3.1-10.2-3.3-10.9h-0.1c0.1,2,0.2,5,0.2,7.7v3.2L-40.3-14.3z"/>
		<path id="Path_25" class="st1" d="M-16.5-22.6c0,6-1.6,8.6-5.7,8.6c-3.8,0-5.5-2.7-5.5-8.7c0-5.8,1.9-8.3,5.7-8.3
			C-18.2-31-16.5-28.3-16.5-22.6 M-23.8-22.7c0,4.1,0.4,5.7,1.7,5.7c1.4,0,1.7-1.6,1.7-5.7c0-3.9-0.3-5.3-1.7-5.3
			C-23.4-28-23.8-26.5-23.8-22.7"/>
		<path id="Path_26" class="st1" d="M-12.6-27.6h-3.2v-3.1h10.2v3.1h-3.2v13.3h-3.8L-12.6-27.6z"/>
		<path id="Path_27" class="st1" d="M-4.2-30.7h3.8v6.2h2.8v-6.2h3.8v16.4H2.5v-7h-2.8v7h-3.8V-30.7z"/>
		<rect id="Rectangle_4" x="8.7" y="-30.7" class="st1" width="3.8" height="16.4"/>
		<path id="Path_28" class="st1" d="M15-14.3v-16.4h4.1c2.5,7.7,3.1,9.6,3.2,10.4h0.1c-0.2-2.1-0.2-4.8-0.2-7.3v-3h3.3v16.4h-4.1
			c-2.6-8.5-3.1-10.2-3.3-10.9h-0.1c0.1,2,0.2,5,0.2,7.7v3.2L15-14.3z"/>
		<path id="Path_29" class="st1" d="M38.5-14.3h-2.8c-0.1-0.4-0.1-0.9-0.1-1.3c-0.7,1.1-1.9,1.7-3.2,1.6c-3.3,0-4.8-2.5-4.8-8.4
			c0-6.5,2.2-8.6,5.8-8.6c4.6,0,5,3.7,5.1,5h-3.8c0-0.8-0.2-2-1.4-2c-1.4,0-1.8,1.8-1.8,5.7c0,4,0.3,5.4,1.7,5.4
			c1.1,0,1.5-1,1.5-2.7v-1.1h-1.6v-3h5.4L38.5-14.3z"/>
	</g>
</g>
</svg>
